# xmcd
#
# Track frame offsets: 
#        150
#        30530
#        51647
#        87457
#        141707
#        159322
#
# Disc length: 2494 seconds
#
# Revision: 1
# Processed by: cddbd v1.5.2PL0 Copyright (c) Steve Scherf et al.
# Submitted via: ExactAudioCopy v1.3
#
DISCID=5409bc06
DTITLE=Kenny Drew Trio With Almost Big Band - Sophisticated Lady (Matr
DTITLE=ix Records, Inc. ALCR-257)
DYEAR=1988
DGENRE=Jazz
TTITLE0=Blues for Duane
TTITLE1=Serenity
TTITLE2=What's This Here Samba
TTITLE3=Bosko's Business
TTITLE4=Sophisticated Lady
TTITLE5=Crisis
EXTD=
EXTT0=
EXTT1=
EXTT2=
EXTT3=
EXTT4=
EXTT5=
PLAYORDER=
